<?xml version="1.0" standalone="no"?>
<!DOCTYPE svg PUBLIC "-//W3C//DTD SVG 20010904//EN"
 "http://www.w3.org/TR/2001/REC-SVG-20010904/DTD/svg10.dtd">
<svg version="1.0" xmlns="http://www.w3.org/2000/svg"
 width="321.000000pt" height="267.000000pt" viewBox="0 0 321.000000 267.000000"
 preserveAspectRatio="xMidYMid meet">

<g transform="translate(0.000000,267.000000) scale(0.100000,-0.100000)"
fill="#000000" stroke="none">
<path d="M1780 2515 c-192 -31 -320 -92 -434 -208 -53 -54 -57 -62 -42 -71 81
-48 121 -85 145 -133 l27 -51 22 58 c69 176 183 277 421 371 l96 38 -55 1
c-30 0 -64 2 -75 4 -11 3 -58 -2 -105 -9z"/>
<path d="M1698 2280 c-129 -119 -227 -259 -244 -346 -3 -19 -9 -34 -13 -34 -3
0 -19 26 -36 57 -37 70 -129 172 -143 158 -22 -21 -54 -144 -60 -225 -4 -47
-4 -121 0 -166 7 -77 39 -198 59 -219 13 -13 95 77 141 155 30 51 38 59 43 44
20 -66 94 -192 154 -260 68 -79 168 -170 177 -162 2 3 -31 66 -74 139 -111
190 -135 252 -140 369 -5 129 20 205 133 400 48 83 85 153 83 156 -3 2 -39
-28 -80 -66z"/>
<path d="M1454 1529 c-19 -44 -75 -99 -126 -125 -18 -9 -35 -18 -37 -20 -8 -7
66 -87 120 -129 124 -97 274 -145 474 -151 l130 -4 -80 33 c-248 104 -335 174
-413 335 l-50 100 -18 -39z"/>
<path d="M1117 863 c-4 -3 -7 -14 -7 -24 0 -13 -7 -17 -27 -16 -21 2 -29 -4
-37 -26 -14 -40 2 -62 48 -63 l36 -1 0 68 c0 69 -1 75 -13 62z m-12 -84 c0
-15 -7 -25 -17 -27 -13 -3 -18 3 -18 21 0 13 3 27 7 31 13 12 28 -1 28 -25z"/>
<path d="M1355 858 c-29 -78 -42 -128 -35 -128 5 0 14 8 19 19 12 21 61 18 61
-5 0 -8 7 -14 15 -14 18 0 19 -8 -9 70 -23 63 -41 84 -51 58z m27 -53 c4 -20
1 -25 -14 -25 -14 0 -18 5 -14 16 3 9 6 20 6 25 0 20 18 7 22 -16z"/>
<path d="M2104 857 c-10 -26 0 -120 14 -125 9 -3 12 14 12 62 0 61 -14 95 -26
63z"/>
<path d="M2320 798 c0 -66 1 -68 25 -68 41 0 74 21 80 52 10 44 -15 75 -65 80
l-40 4 0 -68z m61 42 c37 -20 19 -90 -23 -90 -15 0 -18 8 -18 43 0 57 7 65 41
47z"/>
<path d="M100 795 c0 -37 4 -65 10 -65 6 0 10 11 10 25 0 20 5 25 24 25 14 0
32 7 40 16 33 33 11 64 -46 64 l-38 0 0 -65z m67 44 c17 -17 4 -39 -23 -39
-17 0 -24 6 -24 18 0 32 25 43 47 21z"/>
<path d="M2998 853 c7 -3 16 -2 19 1 4 3 -2 6 -13 5 -11 0 -14 -3 -6 -6z"/>
<path d="M220 780 c0 -38 4 -50 15 -50 11 0 15 11 15 35 0 22 6 38 15 41 24
10 17 19 -15 21 -30 2 -30 1 -30 -47z"/>
<path d="M318 818 c-26 -22 -29 -47 -8 -68 24 -24 43 -25 64 -4 20 20 20 48 0
68 -19 19 -35 20 -56 4z m46 -23 c8 -21 -3 -45 -20 -45 -18 0 -28 24 -20 45 3
8 12 15 20 15 7 0 16 -7 20 -15z"/>
<path d="M422 818 c-6 -7 -10 -24 -9 -38 0 -14 -3 -38 -8 -53 l-7 -28 48 3
c41 3 49 6 49 23 0 15 -8 21 -35 24 -31 3 -32 5 -11 10 13 4 29 15 35 26 6 11
16 23 21 27 6 4 8 8 5 9 -50 8 -79 7 -88 -3z m46 -25 c-2 -10 -10 -18 -18 -18
-8 0 -16 8 -18 18 -2 12 3 17 18 17 15 0 20 -5 18 -17z m12 -73 c0 -5 -13 -10
-30 -10 -16 0 -30 5 -30 10 0 6 14 10 30 10 17 0 30 -4 30 -10z"/>
<path d="M530 780 c0 -27 5 -50 10 -50 6 0 10 15 10 34 0 26 5 36 20 41 11 3
20 11 20 16 0 13 -14 11 -28 -3 -9 -9 -12 -9 -12 0 0 7 -4 12 -10 12 -5 0 -10
-22 -10 -50z"/>
<path d="M623 823 c-23 -9 -14 -20 12 -15 14 2 25 0 25 -6 0 -6 -10 -12 -21
-14 -24 -3 -48 -33 -36 -44 3 -4 25 -8 47 -9 40 -2 40 -2 40 34 0 52 -25 72
-67 54z m37 -58 c0 -8 -9 -15 -20 -15 -22 0 -27 15 -7 23 21 9 27 7 27 -8z"/>
<path d="M713 783 c3 -58 24 -70 29 -16 4 52 32 53 36 1 4 -48 22 -50 22 -4 0
19 5 38 11 41 14 9 17 5 21 -34 6 -54 28 -51 28 3 0 48 -20 70 -42 48 -7 -7
-16 -7 -28 1 -14 8 -22 8 -34 -2 -11 -9 -16 -10 -16 -2 0 6 -7 11 -15 11 -11
0 -14 -11 -12 -47z"/>
<path d="M903 823 c-24 -9 -13 -23 12 -17 36 9 31 -9 -6 -23 -21 -8 -30 -17
-27 -30 2 -14 13 -18 46 -19 42 0 42 0 42 36 0 51 -25 71 -67 53z m42 -53 c3
-6 -1 -13 -10 -16 -19 -8 -30 0 -20 15 8 14 22 14 30 1z"/>
<path d="M1178 819 c-25 -14 -23 -65 2 -79 21 -11 60 -5 60 9 0 5 -11 6 -24 4
-13 -3 -27 0 -30 6 -5 7 4 11 23 11 37 0 44 11 25 38 -17 24 -30 27 -56 11z
m42 -19 c0 -5 -9 -10 -21 -10 -11 0 -17 5 -14 10 3 6 13 10 21 10 8 0 14 -4
14 -10z"/>
<path d="M1450 758 c0 -51 3 -69 13 -66 6 3 13 14 15 26 2 13 8 19 18 15 22
-8 44 16 44 48 0 33 -13 43 -57 45 l-33 1 0 -69z m65 21 c0 -15 -7 -25 -17
-27 -13 -3 -18 3 -18 21 0 13 3 27 7 31 13 12 28 -1 28 -25z"/>
<path d="M1575 810 c-22 -25 -13 -65 17 -73 48 -13 84 38 52 74 -22 24 -46 24
-69 -1z m50 -30 c0 -16 -6 -26 -17 -28 -14 -3 -18 3 -18 28 0 25 4 31 18 28
11 -2 17 -12 17 -28z"/>
<path d="M1670 825 c0 -2 9 -27 20 -56 l20 -51 -20 -5 c-22 -6 -28 -23 -7 -23
23 0 35 15 56 68 24 59 25 72 11 72 -6 0 -13 -13 -16 -30 -4 -16 -10 -30 -14
-30 -5 0 -13 14 -19 30 -5 17 -15 30 -20 30 -6 0 -11 -2 -11 -5z"/>
<path d="M1796 814 c-9 -8 -16 -24 -16 -34 0 -20 25 -50 41 -50 26 0 49 23 49
48 0 49 -42 69 -74 36z m52 -32 c2 -14 -3 -25 -13 -29 -21 -7 -34 12 -27 39 6
26 36 19 40 -10z"/>
<path d="M1963 823 c-24 -9 -13 -23 12 -17 36 9 31 -9 -6 -23 -21 -8 -30 -17
-27 -30 2 -14 13 -18 46 -19 42 0 42 0 42 36 0 51 -25 71 -67 53z m37 -58 c0
-8 -9 -15 -20 -15 -22 0 -27 15 -7 23 21 9 27 7 27 -8z"/>
<path d="M2173 823 c-24 -9 -13 -23 12 -17 35 9 31 -9 -5 -23 -16 -6 -30 -18
-30 -27 0 -18 -1 -17 53 -20 36 -3 37 -2 37 34 0 51 -25 71 -67 53z m37 -58
c0 -8 -7 -15 -15 -15 -16 0 -20 12 -8 23 11 12 23 8 23 -8z"/>
<path d="M2468 819 c-26 -15 -23 -65 3 -80 34 -18 69 3 69 40 0 42 -36 62 -72
40z m47 -39 c0 -16 -6 -26 -18 -28 -19 -4 -32 20 -23 44 9 25 41 13 41 -16z"/>
<path d="M2576 814 c-9 -8 -16 -24 -16 -34 0 -21 25 -50 44 -50 7 0 21 7 32
15 18 15 17 16 -13 10 -32 -6 -33 -5 -33 25 0 30 1 31 32 24 29 -6 31 -5 19
10 -17 20 -45 21 -65 0z"/>
<path d="M2676 808 c-22 -31 -20 -45 9 -64 20 -13 31 -14 48 -6 21 10 20 11
-10 11 -41 1 -44 21 -3 21 22 0 30 5 30 18 0 43 -49 56 -74 20z m54 -8 c0 -5
-9 -10 -20 -10 -11 0 -20 5 -20 10 0 6 9 10 20 10 11 0 20 -4 20 -10z"/>
<path d="M2780 780 c0 -58 17 -68 22 -13 2 27 8 39 21 41 14 3 17 -4 17 -37 0
-29 4 -41 14 -41 18 0 19 62 1 87 -12 15 -17 16 -34 5 -13 -7 -21 -8 -21 -2 0
5 -4 10 -10 10 -5 0 -10 -22 -10 -50z"/>
<path d="M2908 819 c-25 -14 -23 -65 2 -79 22 -12 60 -5 60 10 0 5 -12 8 -27
7 -24 -2 -28 2 -28 23 0 21 4 25 28 23 29 -2 37 11 11 21 -21 8 -26 7 -46 -5z"/>
<path d="M3000 780 c0 -27 5 -50 10 -50 6 0 10 23 10 50 0 28 -4 50 -10 50 -5
0 -10 -22 -10 -50z"/>
<path d="M3063 823 c-23 -9 -14 -24 11 -17 13 3 26 1 30 -4 3 -5 -8 -12 -24
-16 -29 -5 -49 -30 -36 -43 3 -3 24 -7 46 -8 l40 -2 0 42 c0 50 -23 66 -67 48z
m47 -53 c0 -12 -28 -25 -36 -17 -9 9 6 27 22 27 8 0 14 -5 14 -10z"/>
<path d="M1950 528 c-20 -13 -46 -45 -60 -73 -22 -44 -25 -63 -25 -155 0 -87
4 -113 22 -152 26 -56 72 -88 127 -88 95 0 157 95 158 243 0 104 -15 159 -56
204 -27 29 -41 36 -82 40 -40 4 -56 0 -84 -19z m121 -38 c41 -56 50 -269 15
-354 -28 -66 -98 -68 -133 -4 -12 24 -18 64 -21 141 -5 131 3 187 30 222 27
34 82 32 109 -5z"/>
<path d="M2660 528 c-20 -13 -46 -45 -60 -73 -22 -44 -25 -63 -25 -155 0 -87
4 -113 22 -152 26 -56 71 -88 126 -88 54 0 91 25 124 84 23 43 28 65 31 148 7
163 -37 246 -135 255 -39 4 -55 0 -83 -19z m121 -38 c43 -57 50 -277 13 -355
-20 -42 -57 -61 -91 -46 -41 19 -57 67 -61 184 -5 131 3 187 30 222 27 34 82
32 109 -5z"/>
<path d="M3001 538 c-61 -32 -86 -116 -57 -191 10 -26 35 -58 65 -84 59 -51
70 -86 45 -138 -15 -33 -20 -36 -53 -33 -35 3 -36 4 -45 58 l-10 55 -8 -60
c-4 -33 -4 -63 1 -68 5 -5 26 -11 48 -14 79 -10 133 47 133 142 0 60 -10 79
-76 141 -50 47 -54 55 -54 96 0 52 24 82 61 76 19 -2 25 -12 33 -48 l9 -45 9
49 c5 27 5 52 1 57 -16 15 -78 19 -102 7z"/>
<path d="M50 529 c0 -4 7 -9 15 -13 13 -4 15 -38 15 -212 0 -185 -2 -208 -17
-220 -15 -11 -2 -13 90 -14 l107 0 -1 63 -1 62 -12 -45 c-12 -45 -12 -45 -59
-48 l-47 -3 0 95 0 96 28 0 c21 0 31 -7 39 -27 9 -24 11 -17 11 47 0 66 -1 71
-10 43 -9 -27 -16 -33 -39 -33 l-29 0 0 95 0 95 40 0 c42 0 43 -2 55 -54 8
-37 11 -32 18 29 l5 50 -104 0 c-57 0 -104 -3 -104 -6z"/>
<path d="M300 531 c0 -5 7 -11 15 -15 13 -4 15 -38 15 -212 0 -185 -2 -208
-17 -220 -16 -12 -12 -13 32 -13 48 0 49 1 28 16 -22 15 -23 21 -23 179 0 90
3 164 8 163 4 0 47 -81 96 -180 50 -98 94 -179 98 -179 4 0 8 94 8 209 0 115
3 216 6 225 3 9 12 16 20 16 8 0 14 5 14 10 0 6 -20 10 -45 10 -44 0 -60 -12
-31 -23 12 -5 16 -35 18 -146 2 -78 1 -141 -2 -141 -3 0 -40 70 -83 155 l-78
155 -40 0 c-21 0 -39 -4 -39 -9z"/>
<path d="M620 493 c0 -69 16 -87 24 -29 7 44 8 46 42 46 l34 0 0 -204 c0 -200
0 -204 -22 -219 -22 -15 -19 -16 52 -16 71 0 74 1 53 16 -23 15 -23 19 -23
220 l0 204 32 -3 c29 -3 33 -7 39 -41 8 -48 19 -60 19 -20 0 17 3 45 6 62 l7
31 -132 0 -131 0 0 -47z"/>
<path d="M910 531 c0 -5 7 -11 15 -15 13 -4 15 -38 15 -212 0 -185 -2 -208
-17 -220 -16 -12 -9 -13 47 -13 56 0 63 1 48 13 -15 11 -18 30 -18 110 0 125
12 123 62 -10 40 -105 55 -124 100 -124 33 0 34 3 8 38 -11 15 -35 66 -53 113
l-34 86 28 31 c54 60 45 179 -16 202 -33 12 -185 13 -185 1z m160 -40 c5 -11
10 -47 10 -80 0 -66 -21 -101 -60 -101 -19 0 -20 7 -20 100 l0 100 30 0 c19 0
33 -7 40 -19z"/>
<path d="M1220 531 c0 -5 7 -11 15 -15 13 -4 15 -38 15 -212 0 -185 -2 -208
-17 -220 -15 -11 -2 -13 90 -14 l107 0 -1 58 -1 57 -12 -40 c-12 -38 -15 -40
-59 -43 l-47 -3 0 100 0 101 25 0 c20 0 29 -8 40 -32 14 -32 14 -31 14 42 -1
64 -2 70 -10 43 -8 -28 -14 -33 -39 -33 l-30 0 0 95 0 95 44 0 c44 0 44 0 51
-41 9 -50 11 -48 19 19 l7 52 -106 0 c-58 0 -105 -4 -105 -9z"/>
<path d="M1571 503 c1 -21 4 -49 8 -63 6 -22 8 -19 15 23 7 46 8 47 42 47 l34
0 0 -204 c0 -200 0 -204 -22 -219 -22 -15 -19 -16 52 -16 71 0 74 1 53 16 -23
15 -23 19 -23 220 l0 204 32 -3 c29 -3 33 -7 39 -41 7 -44 19 -61 19 -26 0 13
3 41 6 62 l7 37 -132 0 -131 0 1 -37z"/>
<path d="M2220 535 c0 -5 8 -14 17 -20 16 -12 17 -33 15 -215 -2 -180 -4 -204
-20 -216 -14 -11 -4 -13 71 -14 127 0 165 25 197 128 22 70 26 166 9 225 -6
22 -26 55 -44 75 l-33 37 -106 3 c-58 2 -106 1 -106 -3z m180 -35 c10 -5 26
-30 35 -54 23 -61 18 -255 -8 -304 -20 -36 -59 -56 -94 -47 l-23 5 0 205 0
205 36 0 c19 0 44 -4 54 -10z"/>
</g>
</svg>
